<svg xmlns="http://www.w3.org/2000/svg" viewBox="0 0 32 32" width="32" height="32">
  <path d="M16 2c-7.7 0-14 6.3-14 14 0 3.9 1.6 7.4 4.2 10l.8.9c.4.4 1 .4 1.4 0l.8-.9c2.6-2.6 4.2-6.1 4.2-10 0-2.8-1-5.3-2.6-7.4L12 6.6c.4-.4 1-.4 1.4 0l.8.9c1.6 2.1 2.6 4.6 2.6 7.4 0 3.9-1.6 7.4-4.2 10l-.8.9c-.4.4-1 .4-1.4 0l-.8-.9C6.6 23.4 5 19.9 5 16c0-5.5 4.5-10 10-10s10 4.5 10 10c0 3.9-1.6 7.4-4.2 10l-.8.9c-.4.4-1 .4-1.4 0l-.8-.9c-2.6-2.6-4.2-6.1-4.2-10 0-2.8 1-5.3 2.6-7.4l.8-.9c.4-.4 1-.4 1.4 0l.8.9c1.6 2.1 2.6 4.6 2.6 7.4z" fill="#4CAF50"/>
</svg>